<svg id="ewTU3IWPf0K1" xmlns="http://www.w3.org/2000/svg" xmlns:xlink="http://www.w3.org/1999/xlink" viewBox="0 0 280 280" shape-rendering="geometricPrecision" text-rendering="geometricPrecision"><path d="M144.137,9.14c-37.684-17.31-92.793-9.257-120.35,17.614C6.202,44.005,-2.46,64.543,0.606,81.69c1.704,9.485,6.87,16.587,14.56,20.025c9.064,4.072,17.086,4.268,23.812.648c13.653-7.36,17.107-27.672,17.24-28.53l.228-1.374-1.402.014c-3.348.09-7.517-.604-8.294-4.313-.09-.467-.144-.935-.144-1.432c0-6.604,8.24-17.1,19.43-22.423v145.625c-12.04,12.803-18.677,25.907-18.677,36.538c0,2.443.356,4.735,1.057,6.86c2.11,6.425,7.48,10.708,15.125,12.035c10.224,1.78,22.023-1.704,30.785-9.078c8.414-7.087,13.037-16.618,13.037-26.857v-73.303c36.575-13.285,69.457-28.893,72.066-71.493.09-1.373.128-2.715.128-4.057.003-22.707-12.446-40.863-35.42-51.434ZM113.677,98.7c0,0-3.56.648-5.317.98v-62.687c1.388-.105,4.192-.286,4.192-.286c19.582-1.313,30.612,7.344,32.753,25.802.136,1.205.204,2.41.204,3.603c0,16.286-12.132,28.892-31.833,32.587Z" transform="translate(50.21396 17.089148)" fill="#002d72"/></svg>
