<svg id="eLhQ10A32Hx1" xmlns="http://www.w3.org/2000/svg" xmlns:xlink="http://www.w3.org/1999/xlink" viewBox="0 0 175 175" shape-rendering="geometricPrecision" text-rendering="geometricPrecision"><path d="M38.17,8.32h-22.746l-.107.04C7.222,11.56,4.458,22.714,3.908,25.38c0,.02-.01.05-.01.06l-3.53-.186L0,28.214l6.485.34.263-1.28c.435-2.128,3.003-12.88,10.38-15.917h21.04v-3.037ZM96.075,41.006v88.213h9.33-6.293v-85.275c1.338-.03,3.857-.107,3.857-.107.175,0,8.793-.39,14.55,5.068c3.413,3.233,5.185,7.91,5.293,13.916.01-.312.015-.635.015-.967c0-22.265-21.368-21.054-21.368-21.054-1.128,0-3.564,0-4.848.128l-.537.078Zm6.27,42.207v5.77l1.4.118c2.57.197,24.864,2.472,25.303,19.533.015-.332.025-.664.025-1.006c0-19.102-24.605-21.406-26.724-21.582v-2.832h-.006ZM73.384,93.75c0,0-13.038-2.363-15.142-2.754v-79.648h21.07c6.89,2.85,9.926,15.234,10.692,18.974l.26,1.28l6.483-.342L93.072,0h-2.715l3.33,28.3-.347.01-.664.05-2.54.136c-.53-2.56-3.568-16.914-11.732-20.156l-.103-.03h-22.944v82.442c0,0,14.215,2.588,15.157,2.754v4.53h-47.384l-.01,3.058h50.264v-7.344Zm5.673-51.006c0,0-14.85-2.44-15.79-2.578v-4.57h-.01v7.382c0,0,13.637,2.237,15.79,2.588l.01-2.822Zm63.267,48.135c-4.912-4.816-11.436-6.78-16.226-7.6c6.747-3.33,16.723-10.546,16.723-24.14c0-16.074-10.826-23.544-34.068-23.544h-1.27c21.436.048,32.31,6.445,32.31,22.03c0,19.464-21.63,25.07-21.63,25.07v.01c0,0,27.9-.646,27.9,24.218c0,18.916-12.134,28.095-32.925,28.095h-49.871v-4.307h-.02l.01,1.29v6.073h51.392c22.21,0,34.447-10.517,34.447-29.648c0-7.246-2.275-13.174-6.772-17.55" transform="translate(12.952 18.463)" fill="#092c5c"/><path d="M63.267,135.03h49.873c20.79,0,32.925-9.19,32.925-28.106c0-24.864-27.9-24.21-27.9-24.21v-.02c0,0,21.63-5.604,21.63-25.067c0-15.586-10.874-21.983-32.31-22.022-.087-.01-.16-.01-.234-.01h-43.983v4.571c.942.137,15.79,2.578,15.79,2.578v84.98h-.01c-.4.08-14.862,2.598-15.78,2.745v4.559Zm59.56-73.175c0,.332-.004.655-.014.967-.69,18.213-20.46,20.235-20.46,20.235v2.988c2.115.176,26.72,2.48,26.72,21.582c0,.342-.01.674-.025,1.006-.4,10.342-7.12,20.586-23.15,20.586h-9.823v-88.214l.538-.078c1.284-.127,3.72-.127,4.848-.127c0,0,21.368-1.21,21.368,21.055" transform="translate(12.952 18.463)" fill="#8fbce6"/><path d="M23.13,93.506v4.53h47.382v-4.53c-.94-.166-15.15-2.754-15.15-2.754v-82.442h22.938l.11.03c8.158,3.242,11.195,17.607,11.727,20.156l2.544-.137.66-.05.347-.01L90.357,0.01v-.01L3.38,0.04L0.366,25.253l3.53.195c0-.02.01-.05.01-.07.55-2.665,3.315-13.818,11.416-17.02l.102-.04h22.746v82.432c0,0-13.95,2.588-15.04,2.754" transform="translate(12.952 18.463)" fill="#8fbce6"/></svg>
