<svg id="ev0rGjiB7td1" xmlns="http://www.w3.org/2000/svg" xmlns:xlink="http://www.w3.org/1999/xlink" viewBox="0 0 139.1553 130.4873" shape-rendering="geometricPrecision" text-rendering="geometricPrecision"><g><g><path d="M134.275,92.924c-1.723-1.6683-4.5217-4.3719-7.979-2.6945-2.5886,1.2574-3.0654,3.942-3.0654,5.962.006212.634862.045666,1.268964.1182,1.8997q.0988.9932.0972,1.9152c0,5.8036-2.8956,9.2966-6.0604,9.816-2.2313.0903-10.4146-6.9371-14.3566-22.8539c15.0445-5.6506,20.5968-14.428,22.4495-21.0905.61469-2.194234.927996-4.461896.9313-6.7406c0-5.0018-1.5376-9.0275-3.1168-10.7796-.8743-.9715-3.5367-3.9321-7.0722-2.7998-3.6081,1.1547-4.0783,5.2408-4.2492,6.7809-.6945,6.0124-4.1519,10.4815-10.8936,14.0516.7226-17.5,6.9773-36.4422,18.4203-55.2589.9146-1.4975,2.3408-3.845,2.3408-6.162.016228-1.315443-.511028-2.579294-1.4573-3.4932-2.9962-3.0262-6.9192-.6868-9.26.7135l-.6877.4033C77.035,19.9739,60.1936,53.7404,47.8939,78.401c0,0-.2278.4602-.4298.8643C28.4875,86.4839,25.1194,99.4792,25.0894,99.612c-.209902.825927-.325309,1.673023-.344,2.525-.068337,1.599519.62658,3.136531,1.8726,4.1418.763377.609838,1.695252.971184,2.6702,1.0354-.962697.647957-2.072866,1.043449-3.2284,1.1501-5.710629.403811-11.013821-2.973829-13.0625-8.3196-.193-5.167-3.2373-6.2157-4.5885-6.4087-5.0665-.7305-6.9104,5.5511-7.6976,8.2368-1.7477,5.9253-.2188,13.0436,3.9756,18.5734c4.9593,6.5374,12.9148,10.0663,22.4015,9.9377c16.2004-.2243,26.6227-18.006,35.0886-35.3173c4.702425-1.132323,9.470161-1.973785,14.2761-2.5196s4.765-.7248,8.5452-1.3c4.2815,17.5472,12.3097,30.528,22.4573,35.8359c6.039417,3.263163,13.256127,3.519185,19.5116.6922c6.0872-2.631,10.3677-8.4703,11.7378-16.0194c1.3579-7.453-.4233-15.06-4.43-18.9317ZM72.0119,74.327c2.905447-6.294726,6.188252-12.408313,9.8305-18.3074-.0804,1.9866-.2032,3.9944-.2032,5.9587c0,3.6092.2926,7.1148.5606,10.628q-4.6283.9465-10.1879,1.7208Z" fill="#eaaa00"/><path d="M131.1594,96.1447c-1.8942-1.8338-3.8997-3.826-3.357,1.4918.9302,9.145-3.6897,15.632-9.7033,16.607-5.7967.9469-16.6391-10.2158-20.3556-30.1337c29.8389-9.0188,24.6596-30.0467,22.225-32.7548-2.0825-2.3106-3.1179-2.2592-3.5467,1.4941-1.0932,9.5325-7.703,16.0016-19.8966,20.4429-.7315-17.3037,3.837-39.3134,19.145-64.4842c4.5808-7.5279-1.513-3.1024-3.168-2.2413C79.3667,23.8076,63.1976,57.8018,50.7337,82.7439c-16.5352,5.6072-20.8648,16.0966-21.278,17.8788-.5572,2.4266-.3383,2.8957,2.6097,1.4942c3.679644-1.754578,7.396989-3.428974,11.1494-5.022-5.3815,9.3438-10.5843,15.5349-16.9306,15.8452-12.6827.6221-17.7302-10.4157-17.7302-12.3174c0-3.5444-1.6842-3.7331-3.5433,2.6144-2.534,8.592,4.0435,23.0135,22.0195,22.7644c13.6196-.1866,23.1375-16.2026,32.0489-34.6777c10.38-2.8835,17.086-2.7584,29.3196-5.0176c5.615,27.9428,20.7656,44.3877,36.7894,37.4583c11.1114-4.804,11.5716-22.2105,5.9713-27.6198ZM86.87,76.1743c-7.237599,1.643899-14.572045,2.827768-21.9593,3.5445-.1374.0167-.2747.0245-.411.0423c7.0074-15.0378,14.0886-29.8723,22.9967-37.7375-1.58828,11.316411-1.798615,22.783655-.6264,34.1507Z" fill="#ce1141"/></g></g></svg>