<svg id="etC6wpjndP21" xmlns="http://www.w3.org/2000/svg" xmlns:xlink="http://www.w3.org/1999/xlink" viewBox="0 0 260 260" shape-rendering="geometricPrecision" text-rendering="geometricPrecision"><path d="M116.795,233.575C52.4,233.575,0,181.183,0,116.788C0,52.392,52.4,0,116.795,0c64.397,0,116.78,52.392,116.78,116.788c0,64.395-52.384,116.787-116.78,116.787" transform="translate(13.2125 13.2125)" fill="#002d62"/><path d="M174.207,83.314h38.408C198.97,44.224,162.11,16.087,118.55,15.33l16.42,50.52h39.237v17.464ZM59.39,175.275v-17.42l13.775-4.95-3.2,1.13l3.2-1.13v-27.934L19.947,86.3c-3.097609,9.871163-4.670716,20.157227-4.665,30.503c0,33.134,15.88,62.54,40.444,81.055l7.332-22.583h-3.668Zm0-109.425h39.23l16.42-50.52c-43.567.727-80.42,28.895-94.087,67.984h38.437v-17.464Zm64.916,96.307l-7.51-5.476-7.526,5.477v13.12h-18.06l-33.28,24.19c16.598,11.85,36.907,18.827,58.864,18.827c21.95,0,42.253-6.992,58.865-18.826l-33.296-24.192h-18.06v-13.12ZM213.644,86.33l-53.196,38.64v27.936l13.76,4.95v17.42h-3.69l7.34,22.582c24.563-18.53,40.435-47.936,40.435-81.055.009549-10.335097-1.558509-20.611103-4.65-30.473" transform="translate(13.2125 13.2125)" fill="#002d62"/><path d="M116.795,7.904C56.63,7.904,7.905,56.63,7.905,116.788c0,60.156,48.725,108.883,108.89,108.883c60.134,0,108.884-48.725,108.884-108.882c0-60.158-48.75-108.884-108.885-108.884m61.062,189.954l-7.34-22.583h-28.152l33.295,24.176c-16.605,11.835-36.915,18.842-58.865,18.842s-42.275-6.977-58.857-18.84L91.21,175.277h-17.502L54.37,202.05l1.355-4.192c-24.564-18.5-40.45-47.922-40.45-81.07c0-10.613,1.64-20.85,4.67-30.488l53.213,38.67v-6.698L32.514,88.728l-16.72-5.414h5.16c13.666-39.09,50.518-67.257,94.07-67.984l1.77-5.414v99.48h21.28v-21.166l-13.767-4.918v-17.462h10.657L118.55,15.33c43.552.743,80.42,28.895,94.066,67.984h5.19l-16.723,5.43h-40.635v36.227l53.196-38.64c3.0889,9.857349,4.656915,20.128015,4.65,30.458c0,33.134-15.873,62.54-40.437,81.07" transform="translate(13.2125 13.2125)" fill="#eb6e1f"/><path d="M138.072,152.906v-21.144h-32.91l-9.643,13.334v7.81l13.75,4.936v4.315l7.518-5.476l7.524,5.477v-4.315" transform="translate(13.2125 13.2125)" fill="#eb6e1f"/><path d="M160.455,88.232v.512h40.62l16.722-5.43h-43.59M109.27,65.85v17.465L95.52,88.23v21.146h21.268v-99.46L115.04,15.33L98.62,65.85m-3.1,79.246l9.636-13.334h-9.636M69.964,154.05l3.2-1.144-3.2,1.145ZM55.726,197.858l-1.354,4.193l19.35-26.775h-10.662M59.39,83.314h-43.596l16.72,5.414l40.653,29.544v-30.04" transform="translate(13.2125 13.2125)" fill="#f4911e"/><path d="M59.39,157.842v17.433l4.417-4.44h41.024v-9.884l4.44-3.108-13.75-4.936-4.45,3.125v-28.708h51.442l-4.44,4.44v21.144l-13.766,4.936v17.433l4.446-4.44h41.016v-9.884l4.44-3.108-13.76-4.936-4.463,3.125v-70.924l13.783-4.937v-9.868l4.44-4.456h-49.902v17.464l4.446-3.14l13.76,4.935-4.44,3.122v21.146h-42.553l-4.45,4.455v-28.721l13.76-4.937v-9.868l4.44-4.456h-49.88v17.464l4.417-3.14l13.79,4.935-4.43,3.122v64.674" transform="translate(13.2125 13.2125)" fill="#fff"/><path d="M174.207,83.314v-17.464l-4.447,4.455v9.868l-13.768,4.936v70.92l4.463-3.124v-64.672m13.752,69.609l-4.447,3.11v9.883h-41.008l-4.454,4.44h49.91M95.52,131.762h42.55l4.432-4.44h-51.432v28.71l4.45-3.14v-7.796m13.75,17.061v-4.315l-4.43,3.11v9.883h-41.026l-4.424,4.44h49.88M77.598,85.11l-13.79-4.937-4.417,3.14l13.77,4.935m55.591-8.075l-4.446,3.14l13.766,4.935l4.44-3.14M109.27,83.314v-17.464l-4.43,4.455v9.868L91.062,85.11v28.723l4.456-4.455v-21.146" transform="translate(13.2125 13.2125)" fill="#e7e9ea"/></svg>
