<svg id="er0yPYgofR61" xmlns="http://www.w3.org/2000/svg" xmlns:xlink="http://www.w3.org/1999/xlink" viewBox="0 0 175 143.7" shape-rendering="geometricPrecision" text-rendering="geometricPrecision"><g transform="translate(4.028395-.015437)"><g><path d="M135.2,103c-17.2,18.8-22.8,11.5-25.8,2.6L81.3,21C78.7,13.2,73.9,6.6,65.7,4C53.2,0.8,39.6,6.7,35,26.9c4.5-6.5,12.8-12,20.4-7.4c6.6,3.9,6.6,8.3,4,16v0l-2,5.9c-7.9-8.3-24.6-6.6-26.5,12.1c5.2-4.7,23.9-4.3,18.3,12.2v0L32.4,115c-14,.1-28,7.2-32.3,24.7c3.9-6.2,32.6-18.5,58.5.4L75,120c-1.1-1.1-10.1-3-16.8,3.6-3.5-3-8.1-5.3-13.1-6.8l8.6-25.4h31.9L96.8,125c4.4,13.4,14.7,21,21.2,10.9c0,0,17.8-26.6,19.9-29.7c2-3.2-2.2-3.7-2.7-3.2M58.3,77.7L69.8,43.9L81.1,77.7h-22.8Z" fill="#efb21e"/><polygon points="105.5,52.1 108.4,52.1 115.3,43.2 115.3,33.6 105.1,33.6 105.1,44 108.5,44" fill="#efb21e"/><path d="M152.1,57.1c-8.2-1.6-15-3.3-12.9-9.2c1.7-5,13.8-4.5,18,1.8l6.3-6.5c-7.4-10.2-25.3-11.5-32.6-1.3-10,14.1,1.4,21.7,14.3,24.9c5.3,1.3,12,4.4,8.7,9.5-2.8,4.4-13.8,2.3-22-5.2l-5.6,7.6c5,5.8,24.6,18,36.8,3.2c10.2-12.3-2.8-23.2-11-24.8" fill="#efb21e"/></g></g></svg>
