<svg id="eTXe9i0Ga3c1" xmlns="http://www.w3.org/2000/svg" xmlns:xlink="http://www.w3.org/1999/xlink" viewBox="0 0 153.64 216.02" shape-rendering="geometricPrecision" text-rendering="geometricPrecision"><path d="M247.22,144c0-11,1.54-22.95,8.45-34.82-18.22-4.52-32.27-21.69-36.82-36.87-7.55,7.38-15,9.1-26.68,9.1l-78.32-.11L103.2,108c6.514974,2.741642,10.724023,9.152044,10.65,16.22v122.1c.075418,7.065938-4.134775,13.474127-10.65,16.21l10.65,25.84h29.91l10.67-25.84c-6.523071-2.72964-10.742073-9.139202-10.67-16.21v-48.14h48.41c11.72,0,19.13,2.89,26.68,10.27c4.93-15.18,19.77-26.5,38-31-6.91-11.87-9.62-22.41-9.62-33.41M205.9,171.68h-62v-64.6h62c9.81,0,16,6.18,16,14.38v36.91c0,8.61-4.86,13.31-16,13.31" transform="translate(-103.2-72.35)" fill="#ffce34"/></svg>