<svg id="eub1tsIQNv51" xmlns="http://www.w3.org/2000/svg" xmlns:xlink="http://www.w3.org/1999/xlink" viewBox="0 0 95 95" shape-rendering="geometricPrecision" text-rendering="geometricPrecision"><g transform="translate(16.474501 6.233502)"><path d="M50.187,17.565l-33.386.003c0,0,1.995,2.87,1.995,8.324v4.222h-7.066c-1.696,0-3.071-1.375-3.071-3.071v-17.166c0-1.689,1.382-3.071,3.071-3.071h22.913c1.763.024,2.922,1.774,2.681,3.52-.233,1.691-1.116,2.704-1.116,2.704h9.092v-3.936C45.3,4.071,41.229,0,36.206,0L9.093,0C4.071,0,0,4.071,0,9.094v18.899c0,5.022,4.071,9.093,9.093,9.093h25.017c1.696,0,3.071,1.375,3.071,3.071v16.373c0,1.688-1.381,3.069-3.069,3.069h-6.657v-19.242h-8.658v19.242h-7.558c-1.695,0-3.068-1.374-3.068-3.069v-1.635c0-5.439,1.462-6.696,1.462-6.696h-9.092v9.279c0,5.021,4.071,9.092,9.092,9.092h9.164v7.639c0,5.454-1.995,8.324-1.995,8.324h33.39c6.549,0,11.859-5.309,11.859-11.859v-41.247c-.001-6.552-5.312-11.862-11.864-11.862Zm3.205,53.276c0,2.586-2.097,4.683-4.683,4.683h-21.254v-8.953h9.293c5.021,0,9.092-4.071,9.092-9.092v-18.272c0-5.022-4.071-9.094-9.094-9.094h-9.292v-5.538h21.256c2.586,0,4.682,2.096,4.682,4.682v41.584Z" fill="#ffc425"/></g></svg>
