<svg id="ecHT74ZnCfa1" xmlns="http://www.w3.org/2000/svg" xmlns:xlink="http://www.w3.org/1999/xlink" viewBox="0 0 126.247 169.419" shape-rendering="geometricPrecision" text-rendering="geometricPrecision"><g><path d="M104.18,152.014l-9.354-14.855l16.858-21.19l5.596,4.522-.017-12.06-7.548-6.798-20.875,25.98-2.944-4.673c2.548-1.908,5.83-4.36,6.186-4.543.613-.303,2.115-1.204,2.868-1.204.673,0-1.057-3.026-6.04-3.015L88.888,87.48l2.858-3.156c0,0-3.47.543-5.12.043-.35-.108-.942-.39-1.664-.77.938-1.486,1.78-3.188,2.402-5.15c3.384-10.726.987-21.05-6.956-26.96-5.73-4.26-29.122-16.135-29.122-16.135s-14.174-6.93-15.707-8.448c-1.086-1.084-3.32-2.786-3.326-8.133c0-3.198,3.558-6.722,5.086-7.45c2.45-1.16,3.26-1.7,8.226-1.788c2.803-.032,5.41.63,5.763.662c3.095.325,10.41,2.743,14.184,7.84c1.458,1.442,1.74,5.682,1.74,5.682l5.89,3.763l12.8-16.755-6.94-4.663c-1.958,2.103-5.73,2.244-7.25,1.507-1.5-.75-14.444-5.455-16.277-6.04-3.472-1.117-11.02-1.929-15.082-1.323-4.076.608-10.756,1.844-15.983,7.397-6.11,6.506-6.18,11.7-6.176,14.487.01,4.382,1.15,10.173,6.046,15.052c7.07,7.07,17.81,11.462,20.24,12.797c4.28,2.373,17.8,9.443,19.764,10.56c8.296,4.826,11.458,9.955,10.568,16.44-.038.314-.152.62-.212.922-3.638-2.136-8.75-5.346-10.8-7.396c0,0-1.253,1.323-2.05,2.103l-6.03,4.543c.733-2.927.803-7.95.688-8.458-.157-.585-.606-5.422-4.836-8.426-2.874-2.05-9.288-5.88-14.802-8.59-2.36-1.16-10.047-5.79-13.728-8.86c0,0-6.338-5.898-7.32-9.52-1.892-4.142-1.98-13.956-.993-14.932c0,0-2.408,2.733-4.062,8.155-.813,2.645-1.356,6.105-1.356,8.447c0,3.914.69,10.78,4.984,16.58c1.903,2.56,4.885,5.477,8.04,7.538c3.83,2.537,7.71,4.023,7.972,4.22c1.052.746,11.007,4.944,11.917,5.388.905.455,7.298,3.752,7.548,3.84c1.963.715,4.446,3.37,5.195,5.183L44.705,85.42c0,0,.445.824.45,2.103v.987c-1.393-.466-2.818-.867-4.223-1.106-6.788-1.14-10.92-1.074-16.288.25-5.964,1.485-12.216,3.903-18.1,9.77C-0.08,104.083,0,108.55,0,108.55l6.63-3.924c5.54-3.135,12.856-5.01,18.012-5.01c12.455-.01,18.81,3.58,20.522,5.563.01,6.16.017,11.656.017,11.916c0,2.364-.715,2.678-1.235,3.113-.207.183-.39.204-1.106.693c0,0,.91.336,1.143.564.596.444,24.08,14.596,24.08,14.596l9.098-6.67l4.496,7.16-12.46,15.505-8.605-7.83.018,14.62l9.81,9.042l17.29-21.753l14.232,22.622l11.446-9.208-.01-14.488-9.197,6.95ZM64.05,84.12c1.388,1.192,3.07,2.298,4.75,3.274-.033.032-.13.11-.13.11s-6.057,5.17-9.923,5.79v-5.27c.076-.066,5.303-3.905,5.303-3.905m3.948,38.148c0-.087-9.267-5.725-9.267-5.725.023,0,.023-6.224.023-12.872v-1.267c3.958-.77,13.322-5.25,18.278-10.14.04.738.05,4.37.05,8.546c0,2.71-.01,5.583-.01,8.067l-5.668-9-8.767,6.245.01,11.138l4.854-3.21l3.593,5.704c-1.696,1.376-3.095,2.514-3.095,2.514" fill="#27251f"/></g></svg>