<svg id="eFvDfyCnjSz1" xmlns="http://www.w3.org/2000/svg" xmlns:xlink="http://www.w3.org/1999/xlink" viewBox="0 0 276.123 192.163" shape-rendering="geometricPrecision" text-rendering="geometricPrecision"><path d="M155.155,38.812c35.252,0,61.858,16.273,70.792,30.395h44.388c-.81-1.61-2.8-6.995-2.8-6.995h-42.39C216.21,48.09,188.38,31.815,153.12,31.815c-59.956,0-83.48,39.85-83.48,58.936c0,11.055,3.218,20.775,8.694,29.057-3.58-6.735-4.427-16.88-4.427-23.442c0-19.088,22.635-57.553,81.245-57.553Z"/><path d="M151.546,185.298c-61.294,0-85.39-26.29-113.77-56.43C26.133,116.507,18.856,105.345,0,91.44l3.878,8.955c18.125,14.828,25.61,25.54,37.248,37.898c28.386,30.142,52.07,53.868,113.372,53.868c53.655,0,95.2-26.515,114.725-59.146l-2.93-6.865c-19.54,32.63-61.07,59.146-114.747,59.146Z"/><path d="M153.123,31.815c35.26,0,63.088,16.275,72.022,30.397h42.39C247.883,23.392,197.136,0,146.39,0C96.545,0,58.458,28.746,36.604,54.637C15.41,79.733,5.672,87.78,1.946,90.307C0.58,91.238,0,91.443,0,91.443c18.855,13.904,26.133,25.066,37.776,37.425c28.38,30.14,52.476,56.43,113.77,56.43c53.677,0,95.207-26.514,114.746-59.145h-41.914c-19.62,14.893-43.636,26.91-74.17,26.91-28.2,0-57.656-11.765-71.87-33.256-5.477-8.28-8.696-18.002-8.696-29.056c0-19.086,23.525-58.935,83.48-58.935Z" fill="#c6011f"/></svg>