<svg id="erhvkwjlE6c1" xmlns="http://www.w3.org/2000/svg" xmlns:xlink="http://www.w3.org/1999/xlink" viewBox="0 0 145.82 136.704" shape-rendering="geometricPrecision" text-rendering="geometricPrecision"><g><path d="M12.812,17.735c0-9.63-5.854-12.725-11.1-12.653L0,5.01v-4.99h34.194L34.2,5.103c-4.902.41-9.91,3.713-9.91,12.632v29.997l2.37-1.47c4.927-7.696,17.858-28.106,20.548-34C50.52,5.04,45.458,5.04,40.603,5.04v-5.04h30.31v5.04h-2.133c-3.298,0-7.377,0-12.824,7.438-6.964,9.535-20.795,32.64-20.795,32.64c21.182,1.76,29.15,33.97,34.59,38.34-3.11-23.01,12.253-51.703,34.79-50.59c2.522.113,5.628-.238,12.82,1.954c7.195,2.19,7.853-1.74,8.815-6.132h5.38v37.91h-4.654c-.385-6.565-3.322-28.28-22.302-28.94-19.294-.647-22.925,24.104-23.187,40.995-.966,62.422,38.285,60.457,45.475,40.295c1.05-2.912.592-3.745-.587-4.382-8.554-4.59,1.363-16.87,6.857-6.132c2.52,4.928-1.99,28.27-25.516,28.27-36.525,0-47.214-56.54-60.814-74.942-10.595-14.33-19.237-7.88-22.488-4.373l-.143,9.846.087,17.54c0,9.64,5.848,12.735,11.105,12.673l1.713.06v4.97h-37.102v-4.97l1.713-.06c5.246.06,11.1-3.036,11.1-12.675v-67.04" fill="#bd9b60"/></g></svg>