<svg id="expWQuFfo5M1" xmlns="http://www.w3.org/2000/svg" xmlns:xlink="http://www.w3.org/1999/xlink" viewBox="0 0 270 270" shape-rendering="geometricPrecision" text-rendering="geometricPrecision"><path d="M228.772,147.07c-9.004-6.408-19.88-7.828-30.4-9.203-20.068-2.624-35.905-4.703-38.216-37.557-3.357-47.78-4.504-58.755-16.563-67.537-.404-3.35-2.812-22.436-2.812-22.436-.811-6.475-6.718-11.053-13.181-10.247L90.916,4.694c-3.136.386-5.913,1.965-7.85,4.475-1.296,1.66-2.096,3.602-2.364,5.658-5.135-.33-10.053,2.76-11.854,7.815c0,0-6.327,17.78-7.526,21.166-7.328,3.25-13.206,13.61-19.704,34.477l-3.71,12.042c-7.202,23.71-12.888,42.453-23.634,54.006C4.947,154.376,0,165.134,0,174.96c0,2.986.45,5.86,1.363,8.62c2.75,8.237,11.008,18.983,34.837,23.3c13.07,2.26,28.224,11.656,42.88,20.767c10.075,6.26,20.88,12.882,30.575,16.937c6.226,2.648,16.972,7.215,46.89-.284c1.545-.34,4.794-1.67,5.9-6.85.245-1.102.36-2.328.36-3.715c0-10.053-7.045-27.594-26.068-43.907c13.6,1.375,28.798,4.6,40.017,8.555c18.636,6.554,53.58,10.985,73.62-3.556c1.618-1.046,3.47-3.465,3.617-7.85c0-9.235-7.668-27.434-25.218-39.908" transform="translate(8.0045 11.060216)" fill="#fff"/><path d="M226.148,150.728c-24.095-17.097-66.61,4.885-70.467-50.11-3.516-50.007-4.77-57.686-16.295-65.31l-3.05-24.423c-.512-4-4.17-6.84-8.174-6.328L91.473,9.134c-3.515.455-6.146,3.34-6.362,6.76c1.296.454,3.613,1.283,6.425,2.282l-.29-2.328c-.074-.614.37-1.182,1-1.26.635-.08,1.215.35,1.29.987l.425,3.465c1.596.556,3.283,1.17,4.993,1.772l-.676-5.476c-.102-.83.49-1.568,1.29-1.66.817-.112,1.544.478,1.652,1.297l.852,6.94c1.47.523,2.908,1.023,4.31,1.523l-1.08-8.646c-.12-1,.58-1.908,1.58-2.022.983-.136,1.89.58,2.023,1.58l1.295,10.44c1.425.52,2.76.988,3.937,1.42l-1.523-12.315c-.142-1.01.568-1.897,1.556-2.022.993-.136,1.89.57,2.022,1.568l1.744,14.12c.528.182.818.273.818.273c1.352.478,2.55,1.195,3.584,2.058l-2.14-17.29c-.092-.796.49-1.546,1.3-1.647.8-.08,1.552.478,1.637,1.307l2.85,22.935c.4,1.227.637,2.5.637,3.773c0,1.317-.238,2.646-.7,3.964c0,0-6.4,18.04-7.553,21.277c1.425,2.794,2.06,5.748,2.06,8.77c0,9.042-5.327,18.778-10.207,27.695-2.08,3.783-4.044,7.362-5.515,10.724-7.526,18.37-11.178,29.742-11.178,37.5c0,4.135,1.023,7.203,3.027,9.792.07-4.873.983-8.644,1.517-10.473c4.845,1.533,19.165,6.032,26.35,7.6c0,0-.608,14.734,1.193,25.32.84.672,1.54,1.252,2.073,1.717.943.658,1.84,1.295,2.738,1.954c16.21.93,35.427,4.987,47.82,9.338c19.266,6.77,51.887,9.94,69.632-3.033c5.015-3.076-1.34-25.91-21.732-40.382M132.272,38.035c-.64.067-1.214-.364-1.29-1l-3.19-25.696c-.076-.637.39-1.206,1.01-1.285.642-.08,1.216.375,1.278,1l3.18,25.684c.08.635-.352,1.215-.988,1.295m110.842,148.5c-6.175,4.135-14.462,6.17-23.283,6.794-1.896.056-3.174-.626-3.6-2.125l-6.357-17.347c-.62-1.454-.715-2.795,1.24-3.76c0,0,13.114-5.715,14.568-6.487c1.45-.817,3.285-2.214,5.045-.43c8.73,9.224,12.405,19.334,12.405,23.253c0,.033-.01.068-.016.102" transform="translate(8.0045 11.060216)" fill="#bd3039"/><path d="M125.513,186.876c-1.767-1.397-12.15-10.36-26.838-20.29-14.678-9.917-11.287-24.787,1.89-56.97c6.448-14.576,21.198-32.718,12.89-45.01l8.23-23.197c1.374-3.806-.637-7.975-4.442-9.327L82.423,19.7c-3.81-1.353-7.997.647-9.342,4.452L64.846,47.34c-6.43,1.384-12.23,10.77-18.938,32.273-9.172,29.41-15.018,53.46-28.326,67.775-18.96,20.39-21.056,47.712,19.426,55.073c23.26,4.022,50.757,28.107,74.04,37.843c5.583,2.34,14.717,7.1,44.47-.376c6.395-1.204,3.942-29.48-30.003-53.05M34.668,195.42c-12.655-2.898-20.556-8.124-22.93-15.292-2.42-7.282.783-16.904,8.593-26.162c8.854,3.43,16.335,7.554,21.873,11.258-3.964,8.315-6.662,18.698-7.537,30.195M115.353,37.272c.596.228.914.864.692,1.466l-8.696,24.39c-.21.58-.88.91-1.483.682-.6-.205-.903-.875-.692-1.466l8.696-24.38c.232-.59.88-.908,1.482-.693m-6.935-2.487c.76.284,1.17,1.113.89,1.886l-8.485,23.766c-.266.772-1.107,1.18-1.902.885-.75-.272-1.16-1.113-.892-1.886l8.492-23.754c.27-.76,1.124-1.17,1.897-.897m-6.953-2.477c.954.328,1.432,1.362,1.102,2.316l-8.27,23.14c-.335.932-1.37,1.42-2.306,1.09-.938-.34-1.432-1.373-1.097-2.316l8.265-23.13c.335-.94,1.368-1.44,2.306-1.1M71.184,51.425c-.604-.227-.915-.885-.706-1.476l8.708-24.367c.22-.59.88-.91,1.488-.705.58.216.892.875.688,1.466l-8.713,24.38c-.217.6-.87.907-1.467.702m6.952,2.476c-.772-.26-1.18-1.113-.903-1.897l8.48-23.743c.29-.772,1.125-1.192,1.88-.897.784.26,1.17,1.113.904,1.897L80.02,53.007c-.277.773-1.13,1.18-1.885.897m6.93,2.477c-.942-.34-1.43-1.362-1.096-2.305l8.264-23.13c.34-.954,1.374-1.442,2.317-1.113.943.33,1.432,1.385,1.085,2.317L87.377,55.29c-.33.943-1.357,1.432-2.312,1.09m66.798,177.8c-10.985,2.623-18.7,3.43-24.276,3.305-2,.25-3.624-.682-3.947-3.01l-2.05-18.12c.05-1.864.624-3.42,2.92-3.476c5.378.033,11.853-.49,13.853-1.16c2.982-.977,3.754-.66,4.1-.102c7.272,9.77,9.492,18.153,9.492,22.05c0,.216-.07.318-.092.51" transform="translate(8.0045 11.060215)" fill="#bd3039"/></svg>
