<svg id="eLE0YIpgHiC1" xmlns="http://www.w3.org/2000/svg" xmlns:xlink="http://www.w3.org/1999/xlink" viewBox="0 0 142.57 190.229" shape-rendering="geometricPrecision" text-rendering="geometricPrecision"><path d="M77.96,190.23h54.215c-5.015-3.412-9.434-9.375-11.408-16.174l-15.153-52.018c-1.645-5.596,1.025-11.19,5.294-14.98-6.05-1.85-11.408-6.064-13.113-11.848L89.318,66.096c12.066-4.024,19.935-11.18,19.935-19.483c0-10.845-13.436-19.73-32.112-22.27L70.055,0h-7.946l-7.09,24.343c-18.685,2.54-32.134,11.425-32.134,22.27c0,8.303,7.88,15.458,19.958,19.483L34.354,95.21c-1.666,5.784-7.05,9.997-13.097,11.848c4.253,3.79,6.934,9.384,5.306,14.98L11.4,174.056c-2,6.8-6.4,12.762-11.4,16.173h54.21c-4.435-3.413-6.854-9.376-4.87-16.175l1.33-4.548h30.83l1.322,4.548c1.99,6.8-.436,12.762-4.86,16.173l-.002.002ZM61.416,132.68l4.676-16.084l4.67,16.084h-9.346Z" fill="#fff"/><path d="M123.047,186.54c-2.575-3.39-4.642-7.324-5.846-11.448l-15.046-51.65c-2.396-8.204,2.024-14.023,2.603-14.958-5.233-2.832-9.062-7.145-10.51-12.24l-9.17-31.442c12.926-3.445,21.73-10.288,21.73-18.19c0-9.998-14.167-18.347-32.908-20.197L67.283,3.69h-2.397L58.271,26.416c-18.764,1.85-32.93,10.2-32.93,20.197c0,7.902,8.822,14.745,21.74,18.19L37.92,96.246c-1.48,5.094-5.285,9.407-10.53,12.24.59.935,5.016,6.754,2.62,14.956l-15.053,51.65c-1.204,4.125-3.265,8.06-5.857,11.448h37.536c-3.037-6.7-1.438-11.57-.08-16.162l1.333-4.57h36.38l1.35,4.57c1.33,4.593,2.92,9.463-.108,16.162h37.534ZM56.44,136.393l9.65-33.048l9.62,33.048h-19.27Z" fill="#003263"/><path d="M76.055,54.694l-4.82-16.596.947,3.31c-1.973-.1-4.013-.178-6.09-.178v10.766l28.906,99.11l6.654,22.74l11.42,6.843c-.803-1.74-1.51-3.513-2.052-5.34L96.625,126.082c-2.27-7.69-1.026-11.023.62-15.66-4.32-3.31-7.208-7.635-8.606-12.505L77.72,60.4l-.016.01-1.65-5.716ZM69.48,32.044L66.09,20.442v11.536c1.144,0,2.258.022,3.39.067ZM30.34,174.448l9.234,6.24c-.48-3.108-.027-7.188.87-10.097l3.05-10.61-6.343-8.874-6.81,23.34Z" fill="#ba0021"/><path d="M48.658,142.223l17.433-59.7v-30.526l-28.94,99.11h57.849l-11.526-8.883" fill="#ba0021"/><path d="M66.09,82.524l17.383,59.7l11.525,8.882-28.907-99.11" fill="#862633"/><path d="M113.072,180.688l-11.42-6.844L95,151.106h-57.85l28.94-99.11v-10.768c2.08,0,4.12.077,6.092.177l-.947-3.31c-.257,0-.524-.01-.78-.034-1.428-.065-2.877-.12-4.364-.12-1.753,0-3.48.067-5.16.156L56.095,54.693h.017L54.447,60.41h-.017L43.492,97.917c-1.394,4.87-4.24,9.195-8.572,12.506c1.628,4.636,2.87,7.97.613,15.66L21.14,175.35c-.542,1.827-1.233,3.6-2.08,5.338h20.515l-9.235-6.24l6.81-23.342l6.343,8.873h45.147l3.115,10.61c.835,2.907,1.3,6.99.835,10.097h20.482ZM66.09,20.442L62.71,32.045c1.114-.045,2.246-.067,3.383-.067v-11.536h-.003Z" fill="#862633"/><path d="M56.11,54.694h-.017c-10.472-1.237-17.907-4.403-17.907-8.08c0-4.237,9.793-7.76,22.744-8.517c1.678-.09,3.406-.156,5.16-.156c1.488,0,2.938.058,4.364.124.257.023.524.034.78.034c12.936.746,22.755,4.27,22.755,8.516c0,3.677-7.464,6.844-17.925,8.08h-.01l1.65,5.718.015-.01c13.483-2.006,23.174-7.41,23.174-13.787c0-7.59-13.805-13.843-31.416-14.568-1.13-.045-2.245-.067-3.388-.067-1.137,0-2.27.023-3.383.067-17.66.725-31.432,6.977-31.432,14.568c0,6.376,9.668,11.78,23.15,13.798h.017l1.668-5.716v-.003Z" fill="#c4ced4"/></svg>