<svg id="e6i5RSIvTpk1" xmlns="http://www.w3.org/2000/svg" xmlns:xlink="http://www.w3.org/1999/xlink" viewBox="0 0 250 250" shape-rendering="geometricPrecision" text-rendering="geometricPrecision"><g><rect width="250" height="250" rx="0" ry="0" fill="none"/><path d="M162.828,100.02v22.703l-10.609-12.879c3.187-3.715,6.758-7.078,10.609-9.824M125,123.425C114.43,95.563,97.743,83.137,86.438,77.41v-16.719l42.921,52.722c-1.546,3.09-3,6.426-4.359,10.012Zm59.375,30.855v-59.737c9.327,3.824,11.687,17.839,4.374,24.597c0,0,18.328-1.895,18.328-20.847c0-14.949-12.125-23.586-22.702-25.633v-41.878c.078-4.813,12.421-10.723,17.718-.875c9.031-11.797-3.984-35.117-28.499-19.929-24.492-15.188-37.508,8.132-28.469,19.929c5.297-9.848,17.625-3.938,17.703.875v47c-6.438,3.359-14.484,8.887-22.141,18.082L86.516,30.184c1.023-4.684,12.563-9.727,17.633-.277C113.188,18.11,100.18,-5.21,75.672,9.978C51.157,-5.21,38.149,18.11,47.188,29.907c5.297-9.848,17.633-3.938,17.711.875v42.023C54.508,75.094,42.922,83.688,42.922,98.293c0,18.953,18.328,20.847,18.328,20.847-7.133-6.578-5.078-20.035,3.648-24.269v59.409c-.078,4.813-12.414,10.727-17.711.883-9.039,11.789,3.969,35.109,28.484,19.922c24.508,15.188,37.516-8.133,28.477-19.922-5.297,9.844-17.625,3.93-17.711-.883v-54.772c15.555,10.597,26.445,31.644,27.75,43.851v69.234c0,11.211-12.422,19.28-17.703,9.438-9.047,11.796,3.961,32.851,28.476,17.663c24.5,15.188,37.508-5.867,28.469-17.663-5.289,9.843-17.703.844-17.703-9.438v-68.242c.297-4.57,2.094-10.586,5.07-16.878l22.016,27.058c-.469,4.758-12.477,10.32-17.688.633-9.039,11.789,3.977,35.109,28.469,19.922c24.515,15.188,37.53-8.133,28.499-19.922-5.296,9.843-17.639,3.929-17.717-.884Z" fill="#ff5910"/></g></svg>