<svg id="eqVZgvUreyW1" xmlns="http://www.w3.org/2000/svg" xmlns:xlink="http://www.w3.org/1999/xlink" viewBox="0 0 128.2 146.1" shape-rendering="geometricPrecision" text-rendering="geometricPrecision"><g><path d="M17,42.3v4.3h-16.7l6.2,7.8h17.9v-3.1c0-17,1.6-27.8,19.4-29.7c0-1,0-1.8,0-2.3-19.3-.1-26.8,6.4-26.8,23Z" fill="#c0111f"/><path d="M74.6,72.1v37.5c0,1.9.4,3.8,5.7,3.8h2.7c0-.1,0-.2,0-.3v-37.5c0-7.7,10.6-10.5,10.6-10.5s-2.6-1-5.3-2.9l-4.6,1.2c0,0-9.1,2.6-9.1,8.7Z" fill="#c0111f"/><polygon points="119.7,0.9 119.7,46.6 107.4,46.6 114,54.8 127.7,54.8 127.7,9.2" fill="#c0111f"/><path d="M74.6,50.3c0,4.7,6.8,8.2,9.3,9.2l2.5,1c-1.9-1.8-3.5-4.1-3.5-6.8v-31.7l1.5.1c4.5,0,8.7,1.5,12.3,4.2-4.8-4.4-12.2-6.8-22.2-6.9.1,3.7.1,30.9.1,30.9Z" fill="#c0111f"/><polygon points="31.9,137.1 31.9,137.2 38.5,145.7 97.3,145.7 97.3,126 90.3,117.9 90.3,137.1" fill="#c0111f"/><path d="M0.7,42.5c2.7,0,9.8,0,12.4,0c0-.1,0-.2,0-.3c0-.3,0-.4-.1-.1c0-18.6,9.5-26.8,30.9-26.8h3.8v35.1c0,5.8-3.9,9.1-7,11c3.2,1.8,7,5,7,10.7v37.1c0,5.1-3.6,8.1-9.3,8.1c0,0-4.1,0-6.4,0c0,2.9,0,12.9,0,15.8c3.6,0,50.7,0,54.3,0c0-2.9,0-12.9,0-15.8-2.3,0-6,0-6,0-8,0-9.7-4.3-9.7-7.9v-37.3c0-5.8,4.5-9,8-10.7-3.5-2.1-8-5.7-8-11v-35.1h1.4h2c20.8,0,32.6,9.4,32.6,25.8c0,0,0,.7,0,1.4c2.4,0,6.7,0,9,0c0-3.5,0-38.5,0-41.9-3.7,0-111.2,0-115,0c.1,3.4.1,38.4.1,41.9Z" fill="#003278"/><path d="M115.8,42.5c-2.4,0-6.7,0-9,0c0-.7,0-1.4,0-1.4c0-16.4-11.9-25.8-32.6-25.8h-2-1.5v35.1c0,5.4,4.6,8.9,8,11-3.6,1.8-8,5.1-8,10.7v37.5c0,3.6,1.7,7.9,9.7,7.9c0,0,3.8,0,6,0c0,2.9,0,12.9,0,15.8-3.6,0-50.7,0-54.3,0c0-2.9,0-12.9,0-15.8c2.3,0,6.4,0,6.4,0c5.8,0,9.3-3.1,9.3-8.1v-37.3c0-5.8-3.9-8.9-7-10.7c3.1-1.9,7-5.3,7-11v-35.2h-3.8c-21.4,0-30.9,8.2-30.9,26.8.1-.3.1-.2.1.1c0,.1,0,.2,0,.3-2.6,0-9.7,0-12.4,0c0-3.5,0-38.5,0-41.9c3.8,0,111.2,0,115.1,0-.1,3.5-.1,38.5-.1,42Z" fill="#003278"/></g></svg>