<svg id="ehD7yC02zg91" xmlns="http://www.w3.org/2000/svg" xmlns:xlink="http://www.w3.org/1999/xlink" viewBox="0 0 192.756 192.756" shape-rendering="geometricPrecision" text-rendering="geometricPrecision"><path d="M0,0h192.756v192.756h-192.756L0,0Z" clip-rule="evenodd" fill="#fff" fill-rule="evenodd"/><path d="M64.795,84.646c0-5.416-3.638-7.148-6.901-7.12l-1.082-.028v-2.808h21.29v2.863c-3.05.227-6.164,2.081-6.164,7.093l-.008,16.85l1.483-.828c3.07-4.326,11.116-15.796,12.785-19.1c2.063-4.064-1.083-4.064-4.104-4.064v-2.827h18.865v2.827h-1.33c-2.053,0-4.598,0-7.985,4.188-4.333,5.351-12.942,18.337-12.942,18.337c13.187.982,18.142,19.072,21.531,21.535-1.939-12.924,7.623-29.043,21.646-28.425c1.57.063,3.512-.129,7.984,1.106c4.477,1.232,4.885-.985,5.48-3.449h3.346v21.289h-2.885c-.248-3.689-2.078-15.881-13.887-16.24-12.014-.368-14.264,13.523-14.432,23.009-.598,35.082,23.824,33.961,28.305,22.648.65-1.648.369-2.105-.363-2.467-5.316-2.584.848-9.473,4.27-3.439c1.564,2.764-1.248,15.873-15.881,15.873-22.74,0-29.387-31.752-37.853-42.088-6.594-8.057-11.975-4.434-13.997-2.467l-.085,5.537.049,9.848c0,5.414,3.645,7.152,6.91,7.117l1.075.035v2.801h-23.103v-2.801l1.082-.035c3.263.035,6.901-1.703,6.901-7.117v-37.653Z" clip-rule="evenodd" fill="#fff" fill-rule="evenodd" stroke="#fff" stroke-width="3.065" stroke-miterlimit="2.613"/><path d="M152.982,17.086c0-4.734-3.85-8.582-8.582-8.582s-8.582,3.848-8.582,8.582c0,3.092,1.654,5.778,4.115,7.294v2.518c0,6.347-5.152,11.514-11.486,11.514-6.312,0-11.443-5.167-11.443-11.52v-2.512c2.461-1.512,4.121-4.202,4.121-7.294c0-4.734-3.854-8.582-8.584-8.582-4.732,0-8.582,3.848-8.582,8.582c0,3.04,1.598,5.696,3.99,7.219v2.587c0,6.353-5.154,11.52-11.486,11.52-6.31,0-11.441-5.177-11.441-11.545v-2.447c2.502-1.503,4.194-4.212,4.194-7.334c0-4.734-3.85-8.582-8.585-8.582-4.73,0-8.58,3.848-8.58,8.582c0,3.023,1.576,5.668,3.941,7.197l-.061.003v2.62c0,6.342-5.152,11.506-11.483,11.506-6.317,0-11.458-5.175-11.458-11.531v-2.595c2.371-1.528,3.95-4.176,3.95-7.2c0-4.734-3.851-8.582-8.583-8.582s-8.583,3.848-8.583,8.582c0,2.976,1.522,5.594,3.83,7.136v33.058h.073v96.174l52.625,30.797l52.62-30.797v-96.173h.043v-32.956c2.406-1.523,4.017-4.19,4.017-7.239Z" clip-rule="evenodd" fill="#fff" fill-rule="evenodd"/><path d="M46.326,57.306v94.63L96.302,181.18l49.971-29.244v-94.63h-99.947Z" clip-rule="evenodd" fill="#335282" fill-rule="evenodd"/><path d="M144.4,23.017c2.400938.000404,4.565614-1.445789,5.48432-3.664006s.410445-4.771443-1.287704-6.468734-4.251632-2.204259-6.469384-1.284432-3.66285,3.085234-3.661232,5.486172c.002759,3.275629,2.65837,5.929898,5.934,5.931Zm-.593,3.881h-1.225c0,7.809-6.328,14.16-14.135,14.16s-14.09-6.353-14.09-14.166h-3.762c0,7.813-6.328,14.166-14.133,14.166-7.804,0-14.089-6.381-14.089-14.19l-3.793.039c0,7.807-6.324,14.152-14.132,14.152-7.807,0-14.104-6.373-14.104-14.177l-4.092-.044v27.795h100.064v-27.735h-3.734h1.225ZM48.358,23.017c3.277258,0,5.934-2.656742,5.934-5.934s-2.656742-5.934-5.934-5.934c-3.234797.059389-5.826055,2.698658-5.826055,5.934s2.591258,5.874611,5.826055,5.934Zm32.273,0c2.120371.000715,4.080056-1.12983,5.140861-2.965768s1.061567-4.098347.002-5.935-3.01849-2.968517-5.138861-2.969232c-3.27781-.001105-5.935895,2.65519-5.937,5.933s2.65519,5.935895,5.933,5.937Zm31.91,0c3.277192.001105,5.93524-2.653809,5.938-5.931-.000552-3.279076-2.658924-5.937-5.938-5.937-3.277838.002207-5.934345,2.659162-5.936,5.937.003862,3.275952,2.660046,5.929899,5.936,5.931ZM64.795,84.762c0-5.418-3.638-7.147-6.901-7.117l-1.082-.03v-2.809h21.29v2.863c-3.05.229-6.164,2.085-6.164,7.092l-.008,16.85l1.483-.83c3.07-4.32,11.116-15.791,12.785-19.095c2.063-4.063-1.083-4.063-4.104-4.063v-2.827h18.865v2.827h-1.33c-2.053,0-4.598,0-7.985,4.185-4.333,5.359-12.942,18.335-12.942,18.335c13.187.988,18.142,19.082,21.531,21.537-1.939-12.922,7.623-29.042,21.646-28.424c1.57.065,3.512-.127,7.984,1.106c4.477,1.233,4.885-.985,5.48-3.448h3.346v21.293h-2.885c-.248-3.691-2.078-15.884-13.887-16.248-12.014-.364-14.264,13.527-14.432,23.014-.598,35.078,23.824,33.967,28.305,22.646.65-1.65.369-2.107-.363-2.467-5.316-2.582.848-9.473,4.27-3.439c1.564,2.764-1.248,15.875-15.881,15.875-22.74,0-29.387-31.75-37.853-42.09-6.594-8.049-11.975-4.434-13.997-2.463l-.085,5.535.049,9.844c0,5.42,3.645,7.154,6.91,7.123l1.075.031v2.803h-23.103v-2.803l1.082-.031c3.263.031,6.901-1.703,6.901-7.123v-37.652Z" clip-rule="evenodd" fill="#bd9b60" fill-rule="evenodd"/><path d="M62.803,82.767c0-5.415-3.643-7.147-6.907-7.119l-1.079-.028v-2.808h21.289v2.864c-3.048.229-6.162,2.082-6.162,7.092l-.008,16.85l1.48-.828c3.07-4.325,11.118-15.795,12.789-19.098c2.062-4.063-1.084-4.063-4.108-4.063v-2.829h18.866v2.828h-1.332c-2.049,0-4.594,0-7.98,4.187-4.337,5.358-12.943,18.333-12.943,18.333c13.185.984,18.14,19.074,21.531,21.537-1.938-12.922,7.619-29.042,21.648-28.424c1.57.066,3.506-.13,7.984,1.106c4.477,1.233,4.879-.985,5.482-3.451h3.342v21.296h-2.891c-.242-3.691-2.068-15.884-13.881-16.246-12.012-.367-14.266,13.527-14.432,23.011-.598,35.078,23.826,33.969,28.307,22.646.648-1.646.363-2.105-.369-2.467-5.316-2.582.852-9.473,4.27-3.439c1.57,2.764-1.246,15.875-15.881,15.875-22.736,0-29.386-31.754-37.849-42.088-6.598-8.055-11.976-4.436-13.999-2.467l-.084,5.541.05,9.842c0,5.418,3.644,7.156,6.908,7.117l1.079.039v2.797h-23.106v-2.797l1.079-.039c3.265.039,6.907-1.699,6.907-7.117v-37.653Zm75.791,78.893h-1.162v3.164h-.783v-3.164h-1.16v-.686h3.105v.686Zm5.263,3.164h-.787v-3.062h-.02l-1.113,3.062h-.76l-1.076-3.062h-.02v3.062h-.783v-3.85h1.357l.896,2.514h.02l.934-2.514h1.352v3.85Z" clip-rule="evenodd" fill="#fff" fill-rule="evenodd"/></svg>
