<svg id="e1jSGKLZUMe1" xmlns="http://www.w3.org/2000/svg" xmlns:xlink="http://www.w3.org/1999/xlink" viewBox="0 0 550 550" shape-rendering="geometricPrecision" text-rendering="geometricPrecision"><rect width="502" height="502" rx="0" ry="0" transform="translate(24 24)" fill="none" fill-rule="evenodd"/><path d="M108,456l38.88359-.68302l16.78219-77.89009L70,378v-43h37v-292h-34.922775L71.5,0.998073L189,1v42h-38v290h22.8449l49.92168-207.5l67.9592-.33898L341.55809,332.5h24.94191l.52526-71.5h47.94315L415.5,378.00036L353,378l17.62554,77.5L408,456.04413L408,501h-123v-45h38.23326l-17.87074-77.5-95.06906-.51921-17.95924,78.00278L230,456v45h-122v-45ZM294.23824,332.42843L257.96564,176L221,332.45552c0,.7294,72.50857.70258,73.23824-.02709Z" transform="translate(24 24)" fill="#005a9c"/></svg>
