<svg id="eZSYmTxXU431" xmlns="http://www.w3.org/2000/svg" xmlns:xlink="http://www.w3.org/1999/xlink" viewBox="0 0 35 35" shape-rendering="geometricPrecision" text-rendering="geometricPrecision"><path d="M30.724,7.677c.184-.146.39-.3.581-.44l.536-.392-.66-.094c-.465602-.062635-.934324-.099359-1.404-.11-.846,0-2.141.103-3.526.592-.849.234-1.639.557-2.364.963-.159.091-.316.185-.46.276-.577.342-1.047.658-1.484.997l-.162.125-.364-.396c-.213-.234-1.033-1.003-2.607-1.088l-1.072-.058l1.007-.373c1.709-.633,4.718-1.739,5.115-1.885l1.561-1.508L17.18,5.763c-.405-.007-.811.009-1.214.05l-.058.006-.053-.023c-.293416-.125976-.597666-.225049-.909-.296l-.103-.023-.047-.095c-.832093-1.674925-1.892905-3.226093-3.152-4.609-.190897-.197238-.394319-.381955-.609-.553L10.765,0l-.145.319c-.095836.237497-.176008.481019-.24.729-.137.459-.205,1.111-.211,1.999.009.318-.01,1.15-.36,1.864l-.084.146c-.022777.041904-.047127.082933-.073.123-.054.08-.112.153-.164.214l-.071.085c-.243.272-.556.532-.987.823l-.282.172c-.349.206-.807.477-1.167.75-1.092.783-1.852,1.677-2.467,2.901l-.044.086-.092.026c-.806.237-2.029.781-3.504,1.556.863-.073,2.031-.152,2.767-.153l.28.002-.066.271c-.167.700915-.240969,1.42077-.22,2.141l.013.225c.163,2.544,1.516,4.363,2.308,5.222l.087.094-.038.123c-.571227,1.84936-1.147896,3.697035-1.73,5.543-.561,1.7-1.703,2.555-3.285,3.738L0,29.77l.797.015c.628.012,1.279.024,1.926-.027l.072-.006c.96-.075,3.509-.273,5.216-2.039.071-.07.139-.141.204-.213.162-.181.319-.381.482-.616.463327-.590691.843529-1.242082,1.13-1.936l.333-.783.192,1.746c.383,3.435,1.977,3.749,2.657,3.883l.731.161-.305-.533c-.261-.455-.762-1.9-.79-3.04-.014999-.660553-.02-1.321295-.015-1.982.002-.346.002-.643-.002-.878l.008-.483.258-.491l1.027,4.888l1.003-1.34.002.001l5.238-7.05-2.849,9.072l5.822-.005.789-.788-.065-.163c-.096-.244-.113-.297-.144-.388-.113-.304-.135-.671-.071-1.157.033-.256.106-.534.213-.899l3.825-12.32c.665-2.126,1.659-3.671,3.04-4.722m-9.479,2.376c-.739.666-1.483,1.485-2.339,2.58l-.058.076-1.922,2.616-.295.4-.911-4.351l1.299-1.271l4.737-.509-.511.459Z" transform="translate(1.5795 2.5225)" fill="#fff"/><path d="M12.69,22.196c-.063.173-.324.548-.337.571-.051865.078719-.085987.167778-.1.261l.376.396c-.001-.035.005-.173.005-.185v-.09c-.002-.056.002-.079.058-.187.00608-.0107.012757-.02105.02-.031.097-.146.19-.284.252-.417l-.19-.802c-.008383.16413-.036588.326644-.084.484" transform="translate(1.5795 2.5225)" fill="#fff"/><path d="M18.159,8.779l-1.98.12c0,0-.024-.954.99-1.337c1.013-.383,5.621-2.07,5.621-2.07l-4.534.817h-.001l-1.043.188c-.786-.028-1.42.071-1.42.071-.373781-.183882-.771221-.315128-1.181-.39-.09-.02-.181-.04-.271-.056-.533-1.134-1.579-3.068-3.239-4.874-.452,1.336.185,2.232-.696,4.072-.095.224-.226.43-.388.611-.769.845-1.198.946-1.983,1.478-1.258.789-2.171,1.779-2.771,2.871.431-.104.866-.193,1.304-.266.194-.261.405-.513.641-.748.191-.183.393-.356.607-.518c1.332-1.006,3.19-1.547,5.197-1.609l.138-.003c-2.355.299-4.468,1.209-5.875,2.773c1.699-.22,3.125-.17,3.976-.049-.598.219-1.201.496-1.78.828l-.031.016-.128.076-.249.153c-.2.127-.395.262-.584.405l-.009.007c-.023089.016774-.045762.034113-.068.052-.692903-.065152-1.388114-.102849-2.084-.113-.612,1.175-.913,2.6-.784,4.298-.12076-.471749-.193134-.954577-.216-1.441-.046805-.980695.131766-1.959072.522-2.86-.365.001-.711.009-1.041.022-.976,2.697-.28,5.785,1.635,7.959l.515-1.665c-.62-4.679,5.638-7.033,8.537-7.01L16.62,9.484l3.574-.383c0-.003-.511-.417-2.035-.322M11.566,2.997c-.002-.022-.002-.078-.003-.134.692189.945081,1.307812,1.943921,1.841,2.987-.96.01-1.908.211-2.789.592.494-.664,1.063-1.833.951-3.445m4.11,5.933l-.864.053c0,0,.18-.718,1.32-1.097c0-.001-.359.206-.456,1.044" transform="translate(1.5795 2.5225)"/><path d="M21.888,16.278l-.989,1.33-3.216,10.241l5.343-.004.584-.583h-5.121l3.399-10.984Zm-4.743.181c.828-1.12,1.962-2.654,3.018-4.03l.008-.01c1.902-2.265,3.114-3.376,4.629-4.245.481882-.268404.986098-.494582,1.507-.676-.735.203-1.509.497-2.285.931-.158.09-.311.183-.463.279-1.412.838-2.624,1.769-4.441,4.091L16.49,16.37l.159.758.496-.669m-2.361,9.374l.035-.048.028-.037.022-.03-.086.115h.001Zm-1.853-4.475l.122.584-.122-.584Zm.493.103c-.082.12-.102.18-.11.248l-.002.023c-.014.242-.051.548-.13.762-.002726.007917-.00607.015607-.01.023l.891,4.28.477-.635-1.02-4.839c-.039.053-.072.103-.096.138M6.753,28.094c-1.393.653-2.845.733-3.479.778-.255.017-.51.027-.765.028.952-.744,1.705-1.471,2.207-2.501.145-.281.282-.595.403-.945.18-.524,1.975-6.326,3.254-10.469-.131.15-.257.306-.37.47-.321.466-.671.968-.858,1.509-.013.036-.023.075-.035.112-.053.171-.105.343-.16.517-.17.553-.345,1.116-.515,1.665l-.083.268-.004-.004c-.939,3.023-1.711,5.497-1.818,5.824-.634,1.928-2.023,2.847-3.775,4.168.626.011,1.301.025,1.947-.026.896-.071,3.436-.226,5.121-1.97.065-.065.128-.131.191-.2.176-.196.333-.404.482-.617-.062.077-.12.158-.187.232-.441233.481195-.969086.87505-1.556,1.161m5.687-9.096c.155-.127.325-.26.506-.393l-.571-2.708-.346,1.13.411,1.971Zm.806,1.882l.139-.192-.139.192m0,0c-.073.102-.136.194-.186.266l.186-.266" transform="translate(1.5795 2.5225)" fill="#ef3340"/><path d="M12.596,29.134c-.016373-.003276-.032433-.00796-.048-.014-.219-.078-1.118-.544-1.487-3.021-.055847-.3681-.105188-.737157-.148-1.107l-.015-.132c-.083-.759-.091-1.14-.134-1.484-.025-.198-.071-.617-.337-1.107.002261-.005475.003937-.011173.005-.017l-.001-.001l1.597-5.225.346-1.129.571,2.708c-.182.134-.35.267-.506.394-.362.296-.642.551-.778.661-.227.182-.387.287-.542.344l-.154.504c.304-.072.596-.257.945-.578.355-.326.486-.411.945-.809.247-.214.476-.39.687-.534l-1.064-5.042L9.51,23.259c-.155.534-.627,2.158-1.639,3.282-.309.343-1.188,1.32-3.658,1.654.462-.517,1.047-1.348,1.461-2.548.2-.582,2.28-7.312,3.56-11.458-.311.238-.6.505-.861.797-1.279,4.143-3.074,9.945-3.254,10.469-.121.35-.259.664-.403.944-.502,1.03-1.255,1.757-2.207,2.501.253-.002.507-.01.765-.028.633-.045,2.086-.126,3.479-.778.586914-.28595,1.114767-.679805,1.556-1.161.067-.074.125-.154.187-.232.968-1.201,1.425-2.748,1.58-3.279l.033-.113.133-.437c.057.167.092.347.11.554c0,0,.109,1.021.269,2.454.387,3.47,1.946,3.534,2.579,3.676c0,.001-.293-.12-.604-.422M29.774,6.911c-.903,0-2.141.12-3.467.587-.495.174-1,.392-1.507.676-1.515.868-2.727,1.979-4.629,4.245l-.008.01c-1.018225,1.334134-2.024267,2.677523-3.018,4.03l-.496.67-.159-.758-1.117-5.327c-.198161.003166-.396056.015848-.593.038l1.559,7.437.389-.514c.181-.239.493-.661.889-1.196.99-1.348,1.993-2.687,3.008-4.016c1.85-2.203,3.019-3.278,4.464-4.106c1.668-.934,3.345-1.165,4.511-1.185-1.216,1.126-2.114,2.653-2.735,4.642L23.041,24.465c-.12.413-.203.731-.244,1.04-.06.448-.059.829.005,1.169h-3.516l4.178-13.502-8.619,11.591-.862-4.088c-.183.241-.35.481-.464.646l1.02,4.839l6.359-8.554.989-1.329-3.398,10.984h5.121c-.105-.269-.119-.315-.147-.397-.128-.344-.154-.751-.084-1.283.037-.272.113-.567.224-.948l3.824-12.316c.681-2.181,1.704-3.768,3.126-4.852.191-.151.398-.306.593-.448.001.002-.701-.098-1.372-.106" transform="translate(1.5795 2.5225)" fill="#00a3e0"/><path d="M12.93,21.353c.019189-.039762.041597-.077889.067-.114l.063-.093.186-.266.139-.192c.159-.217.326-.43.499-.636l.284-.326.028-.033c.083-.095.164-.188.245-.277l.049-.055c.147339-.1663.299744-.328043.457-.485l.025-.026h.002c.283-.278.541-.483.767-.559-.016-.005-.034-.003-.051-.006-.123-.004-.447.042-1.012.487-.294.253-.656.606-1.096,1.101-.493.557-.722.941-.892,1.161-.127.163-.166.254-.191.407-.005.028-.016.471-.099.698-.064.173-.324.548-.337.571-.122.203-.108.302-.104.414.004.113-.018,1.609.024,3.274s.613,2.735.613,2.735l-.001-.001c.311.303.604.423.604.423-.298-.52-.797-2.018-.826-3.167-.031-1.2-.005-2.248-.016-2.864-.001-.135-.004-.27-.008-.405l-.001-.035c-.002-.056-.002-.073.054-.18.006-.01.011-.019.02-.031.144-.218.286-.441.344-.599.08-.214.106-.519.12-.762l.002-.023c.008978-.045766.023066-.090378.042-.133v-.003Z" transform="translate(1.5795 2.5225)" fill="#41748d"/><path d="M6.435,19.259C4.52,17.086,3.824,13.997,4.8,11.3c-.165.007-.331.015-.496.024-.292124.887796-.426817,1.819822-.398,2.754c0,.008-.003.015-.003.023l.002.025c.001.013-.002.026-.001.039l.013.114c.139,2.161,1.239,4.041,2.431,5.244l.004.004.083-.268" transform="translate(1.5795 2.5225)" fill="#00a3e0"/><path d="M22.776,5.493l-4.52.815l4.534-.816c0,0-4.607,1.686-5.621,2.07-1.013.383-.99,1.336-.99,1.336l1.98-.12c1.524-.096,2.035.319,2.035.319l-3.574.382-1.134,1.103c-2.899-.023-9.156,2.331-8.537,7.01l.159-.518.035-.112.011-.035.154-.499c.039-.12.076-.238.111-.342.101-.356.235-.697.403-1.019.777-1.497,2.355-2.469,3.499-3c1.125-.521,2.389-.877,3.458-.988.205-.022.405-.035.592-.038l.071-.003.227.002l1.225-1.197l4.323-.465c-.164-.179-.981-.974-2.592-1.006-.165172-.001828-.330342.003844-.495.017l-1.346.082c.091755-.255577.29096-.458071.545-.554.999-.378,6.337-2.341,6.383-2.358l.428-.418-1.364.352Z" transform="translate(1.5795 2.5225)" fill="#41748d"/><path d="M5.319,14.139c.021.489.095.971.215,1.441-.13-1.698.172-3.122.783-4.297-.158651-.002833-.317324-.004167-.476-.004-.390234.900928-.568805,1.879305-.522,2.86M13.15,7.135l-.138.003c-2.006.063-3.865.604-5.197,1.61-.212299.160636-.414981.3336-.607.518-.231941.233073-.446201.483098-.641.748.24-.04.477-.076.708-.106c1.406-1.564,3.519-2.474,5.875-2.773" transform="translate(1.5795 2.5225)" fill="#ef3340"/><path d="M11.563,2.863c.001.056.001.112.003.134.112,1.612-.456,2.781-.951,3.445.881384-.380886,1.829888-.582146,2.79-.592-.534132-1.042762-1.15006-2.041555-1.842-2.987" transform="translate(1.5795 2.5225)" fill="#00a3e0"/><path d="M14.812,8.983l.864-.053c.097-.838.456-1.044.456-1.044-1.141.379-1.32,1.097-1.32,1.097M5.841,11.279c.855-.003,1.71.037,2.562.117l.068-.052.009-.007c.189-.143.384-.278.584-.405.082-.053.166-.103.249-.153l.128-.076c-2.158-.095-5.061.013-7.831.914.069-.013,1.113-.204,2.695-.293.511-.03,1.024-.045,1.536-.045" transform="translate(1.5795 2.5225)" fill="#41748d"/><path d="M9.44,10.703l.031-.016c.569281-.325008,1.164678-.601968,1.78-.828-.85-.121-2.277-.171-3.975.049-.676859.089882-1.348722.214041-2.013.372.601-1.092,1.513-2.081,2.772-2.871.785-.532,1.214-.633,1.982-1.477.199-.219.289-.405.388-.612.882-1.84.244-2.736.696-4.071c1.661,1.805,2.707,3.739,3.239,4.874.091.016.181.035.271.056.341.062.748.175,1.181.39c0,0,.634-.1,1.421-.071l1.043-.188l4.521-.815l1.366-.35.449-.433L17.179,6.04c-.438495-.012674-.87733.006711-1.313.058-.357128-.163998-.732402-.285173-1.118-.361-.031-.006-.06-.017-.09-.024-.566-1.172-1.586-2.988-3.199-4.741-.185761-.192965-.383844-.373678-.593-.541-.094.205-.228.699-.228.699-.146.488-.194,1.202-.198,1.904.012.489-.046,1.3-.393,2.005-.024.047-.052.092-.079.138-.031.053-.062.108-.096.16-.058.083-.12.163-.185.24-.024.028-.046.059-.072.086-.265.296-.609.575-1.05.873l-.092.06c-.32.192-.899.517-1.338.852-1.167.836-1.895,1.776-2.475,2.99-1.001.28-2.036.662-3.056,1.179l.004-.001c2.771-.9,5.673-1.008,7.832-.913" transform="translate(1.5795 2.5225)" fill="#00a3e0"/><path d="M13.311,21.731l.002-.023c.008-.068.028-.128.11-.248l.096-.139c.114-.166.282-.405.464-.646l.862,4.088l8.619-11.591-4.178,13.501h3.516c-.064-.34-.066-.72-.005-1.169.041-.309.124-.627.244-1.04l3.826-12.322c.621-1.99,1.519-3.516,2.735-4.643-1.167.02-2.843.252-4.511,1.185-1.445.828-2.615,1.904-4.464,4.106-1.015211,1.329225-2.017921,2.667951-3.008,4.016-.396.535-.708.957-.889,1.196l-.389.514-1.559-7.437c-1.069.111-2.333.467-3.458.988-1.144.531-2.722,1.503-3.5,3-.168857.324978-.303898.666435-.403,1.019l-.111.342-.154.499-.012.035c.188-.541.537-1.043.858-1.509.113-.164.239-.32.37-.469.261-.295.554-.559.862-.797-1.279,4.146-3.36,10.876-3.56,11.458-.414,1.2-.999,2.031-1.461,2.548c2.47-.334,3.349-1.312,3.658-1.655c1.012-1.125,1.484-2.749,1.639-3.282.013-.048,2.968-9.715,2.968-9.715l1.064,5.042c-.238882.164908-.468248.343193-.687.534-.459.398-.59.484-.945.809-.349.321-.641.506-.945.579l-.533,1.745-.005.016c.266.49.312.91.337,1.108.042.345.05.726.134,1.484l.015.132.036.296.027.209c.024.184.052.382.084.602.37,2.477,1.269,2.943,1.488,3.021.031.011.047.014.048.015h.001c0,0-.57-1.07-.613-2.735-.042-1.665-.02-3.161-.024-3.274s-.018-.211.104-.414c.013-.023.274-.398.337-.571.084-.226.095-.669.099-.698.025-.153.063-.244.191-.407.17-.22.399-.604.892-1.16.439-.496.802-.849,1.096-1.102.565-.445.889-.491,1.012-.487.017.003.034.002.051.006-.226.076-.484.281-.767.559h-.002l-.025.026c-.06.059-.122.123-.184.189l-.062.066c-.088.094-.174.189-.26.285l-.245.277-.028.033-.284.326c-.174.206-.341.418-.499.637l-.139.192c-.073.102-.136.194-.186.266l-.063.092c-.025403.036111-.047811.074238-.067.114l.001.005.122.584.119.574.01-.023c.078-.214.114-.519.128-.762" transform="translate(1.5795 2.5225)"/></svg>
