<svg id="ejZoJYW6wdX1" xmlns="http://www.w3.org/2000/svg" xmlns:xlink="http://www.w3.org/1999/xlink" viewBox="0 0 200 215" shape-rendering="geometricPrecision" text-rendering="geometricPrecision"><g transform="translate(12.303002 9.499497)"><path d="M175.39,166.967c-2.76,3.307-19.083,19.36-33.193,29.033-2.337-33.71-18.557-55.413-45.09-73.884l-.007.037c-.828,17.965-.92,33.746-.278,44.814.555,9.538,5.127,15.337,12.592,21.432-9.692,2.22-38.046,1.8-47.72-1.247c1.103-.827,13.08-7.453,14.108-29.058.728-15.485.82-26.96.278-45.912l-1.13-4.862C62.02,97.796,50.754,88.036,36.232,72.34c13.283,35.142-3.59,78.845-5.52,94.898-.662,5.392-2.364,16.312-1.822,27.515C24.752,192.26,8.014,181.343,0,170.83C23.376,130.864,40.256,91.565,3.59,55.87c6.93-10.365,17.158-19.632,25.3-23.642C37.48,56.98,56.297,76.623,69.857,85.21c-10.384-38.46-23.672-51.044-32.1-55.34C43.285,16.904,61.553,3.468,71.24,0c-4.436,14.386-4.806,23.8-.426,39.15C75.25,54.635,82.16,73.45,89.908,87.555c4.153-7.194,18.817-37.608,22.685-50.91c3.882-13.264,3.882-25.17,2.216-33.734c8.434,4.27,26.56,21.286,30.705,29.577-8.846,1.95-13.004,6.478-18.248,15.51-5.4,9.267-19.094,44.272-26.7,59.35c8.02,6.91,22,15.62,33.06,28.897-12.17-47.874.28-84.225,16.325-95.17c7.465,2.21,17.015,8.317,23.924,15.486-26.003,10.932-24.33,44.148-24.48,46.628-1.177,19.026,6.498,52.86,20.916,61.114c3.12,1.79,3.442,1.9,5.083,2.665-2.76,3.307-19.083,19.36-33.193,29.033" fill="#0c2340"/></g></svg>
