<svg id="eMLK4jgo9sS1" xmlns="http://www.w3.org/2000/svg" xmlns:xlink="http://www.w3.org/1999/xlink" viewBox="0 0 290 290" shape-rendering="geometricPrecision" text-rendering="geometricPrecision"><path d="M226.398,6.898c-23.083-18.502-44.05,4.622-44.05,17.874c23.117,4.91,43.72,28.035,34.478,88.096-7.52,49.08-36.48,79.66-54.726,80.256c15.12-20.66,25.273-44.008,30.813-66.842c16.553-68.146-9.95-90.142-30.95-91.173-25.507-1.272-51.02,33.46-58.14,74.442-5.627,32.48-4.934,65.633,14.833,89.948-17.455,22.06-59.435,28.872-52.07-24.265c6.184-44.476,28.278-93.508,40.492-117.63l.363-.645c6.562-13.43,11.764-22.963,14.002-26.747l-4.92-.064C68.747,30.97,30.8,41.984,13.088,66.17C-3.5,88.813,-3.98,112.645,9.722,126.8l2.005,1.98c4.01,4.04,9.275,6.12,14.517,6.12h.04c4.726,0,9.524-1.772,13.132-5.396c3.614-3.59,5.394-8.404,5.38-13.138c0-5.25-2.095-10.515-6.128-14.525-2.11-2.11-4.574-3.688-7.19-4.72l.08-.144c.355-.87.782-1.707,1.248-2.528c3.204-5.62,8.8-10.74,16.095-14.413c5.726-2.882,12.488-4.863,19.8-5.603l-1.154,2.463c-10.128,18.76-24.927,54.49-29.588,73.122-14.565,58.26,8.977,92.38,34.428,97.147c30.643,5.717,54.185-9.146,66.616-28.34c14.832,9.403,53.977,14.83,83.403-37.568C256.27,120.872,257.5,31.84,226.398,6.898ZM139.774,179.453c-5.82-14.154-8.477-30.82-8.477-46.633c0-19.098,3.807-36.858,10.4-47.277c4.35-6.86,9.494-10.177,15.33-9.806c2.07.162,4.422.838,6.08,4.83c1.353,3.236,1.965,7.52,1.965,12.51c0,24.913-14.88,67.376-25.298,86.376Z" transform="translate(20.740639 20.666141)" fill="#ab0003"/></svg>
