<svg id="e6UctrLCAux1" xmlns="http://www.w3.org/2000/svg" xmlns:xlink="http://www.w3.org/1999/xlink" viewBox="0 0 215 215" shape-rendering="geometricPrecision" text-rendering="geometricPrecision"><path d="M36.454,11.658c0,0-30.257,11.86-30.286,50.415-.039,39.5,29.17,46.961,29.17,46.961s-15.036-18.881-14.993-49.188c.057-32.631,16.109-48.188,16.109-48.188" transform="translate(31.567 15.9995)" fill="#33006f"/><path d="M139.336,170.171c-6.26-6.149-17.677-38.474-27.113-40.598c3.458-1.74,25.223-6.812,25.323-30.346-.1-25.441-23.662-33.683-47.225-33.683-5.012,0-14.141.371-23.42.92-11.778.738-17.819,1.287-26.792,2.025v8.655c12.658,0,15.31,2.941,15.31,16.75v16.462c-17.442-3.682-28.888-23.088-28.888-50.362c0-28.878,13.567-49.185,33.383-49.185c7.457,0,14.013,2.984,19.232,8.384c5.222,5.401,8.944,13.229,10.587,22.728h7.001L95.401,2.98h-5.521c-.595,1.864-1.337,2.613-2.688,2.613C83.471,5.593,74.68,0,58.728,0C41.443,0,26.682,6.338,16.401,17.517C5.967,28.878,0,44.345,0,62.974c0,12.854,3.725,27.388,12.227,38.937c8.491,11.553,22.211,19.937,42.177,19.937.342,0,.67-.028,1.016-.035v36.328c0,13.435-2.945,16.198-15.31,16.198v8.655h55.809v-8.655c-11.493,0-15.76-1.658-15.76-15.278v-24.668h7.803c0,0,28.767,48.608,29.551,48.608c2.036-.007,34.353-.021,34.353-.021v-8.609c0-.001-6.491,1.065-12.53-4.2M6.167,62.072c.029-38.556,30.285-50.415,30.285-50.415s-16.051,15.556-16.105,48.19C20.3,90.15,35.336,109.036,35.336,109.036s-29.205-7.464-29.169-46.964M74.163,174.309h-12.715v-98.659l12.715-.881v99.54Zm55.876-74.583c.064,19.381-23.644,24.261-23.644,24.261s8.758-5.276,8.762-24.044c.01-18.95-8.377-24.308-8.377-24.308s23.196,2.093,23.259,24.091M80.159,125.37v-6.078c.556-.021,1.127-.054,1.672-.054c1.796,0,3.429,0,4.769.374c1.49.185,2.987.556,4.324,1.116l.453-1.305c4.317-12.665,7.896-26.453,9.086-37.076h-7.004c-3.561,9.546-8.01,16.694-13.3,21.467v-29.433h7.215c14.28,0,21.798,9.571,21.798,24.111c0,18.964-7.653,27.245-29.013,26.878m38.042,48.993c0,0-16.384-29.294-23.912-39.789c0,0,5.528-.873,8.224-1.65c2.459-.699,4.249-1.408,4.249-1.408c6.424,3.233,15.599,17.574,20.504,29.298c5.283,10.58,9.065,13.592,9.065,13.592l-18.13-.043Z" transform="translate(31.567 15.9995)" fill="#c4ced4"/><path d="M61.449,174.311h12.714v-99.544l-12.714.881Zm53.71-74.37c-.007,18.768-8.762,24.047-8.762,24.047s23.705-4.884,23.644-24.265c-.068-21.998-23.263-24.09-23.263-24.09s8.391,5.362,8.381,24.308m12.107,60.873c-4.905-11.728-14.081-26.065-20.504-29.298c0,0-1.789.706-4.249,1.408-2.695.777-8.224,1.65-8.224,1.65c7.529,10.494,23.912,39.789,23.912,39.789l18.13.043c0,0-3.782-3.012-9.065-13.592" transform="translate(31.567 15.9995)" fill="#33006f"/></svg>
