<svg id="erIDAuGla1c1" xmlns="http://www.w3.org/2000/svg" xmlns:xlink="http://www.w3.org/1999/xlink" viewBox="0 0 233.411 222" shape-rendering="geometricPrecision" text-rendering="geometricPrecision"><path d="M66.264,90.503L50.367,84.808h-50.367l66.264,48.148m41.753-68.323v20.174l-15.91,5.696v24.425h49.178v-24.425l-15.91-5.695v-20.175h12.325L116.696,0L95.706,64.633M183.03,84.808l-15.896,5.695v42.453l66.277-48.148M66.264,165.223l-3.67,1.33l3.67-1.33Zm79.993,25.842L188.832,222l-10.06-30.935m-124.155,0L44.572,222l42.57-30.935m38.232-20.133l15.91-5.71v-24.452h-49.177v24.453l15.91,5.71v4.98l8.68-6.327l8.678,6.326" fill="#eb6e1f"/><path d="M183.03,84.808l-15.896,5.695v.572h46.96l19.317-6.267M108.017,64.633v20.174l-15.91,5.696v24.425h24.588v-114.928L95.705,64.633M92.106,140.77v15.44l11.16-15.44M66.264,165.223l-3.67,1.33l3.67-1.33ZM54.617,191.065L44.572,222l22.357-30.935M66.264,90.503L50.367,84.808h-50.367l66.264,48.148" fill="#f4911e"/><path d="M66.264,125.188L19.317,91.075L0,84.808l66.264,48.148" fill="#eb6e1f"/><path d="M183.03,84.808v-20.175h-57.656v20.175l15.91,5.695v24.425h-49.177v-24.425l15.91-5.695v-20.175h-57.65v20.175l15.898,5.695v74.72l-15.897,5.71v20.132h57.65v-20.133l-15.91-5.71v-24.452h49.178v24.453l-15.91,5.71v20.132h57.655v-20.133l-15.896-5.71v-74.72" fill="#fff"/><path d="M177.9,69.784v11.403l-15.903,5.696v81.946l5.137-3.607v-74.704l15.896-5.71v-20.175M177.9,185.928h-47.39l-5.136,5.137h57.656v-20.133l-5.13,3.605M92.106,140.77h49.18l5.128-5.124h-59.438v33.183l5.13-3.607m10.774,20.706h-47.398l-5.115,5.137h57.65v-20.133l-5.137,3.605M71.4,86.883L55.482,81.187l-5.115,3.62l15.897,5.696m80.15-3.62l-15.905-5.696-5.136,3.62l15.91,5.696m-49.177,0l15.91-5.695v-20.16l-5.136,5.136v11.403L86.976,86.883v33.195l5.13-5.15" fill="#e7e9ea"/></svg>