<svg id="e9pw30ltkCJ1" xmlns="http://www.w3.org/2000/svg" xmlns:xlink="http://www.w3.org/1999/xlink" viewBox="0 0 157.271 171.671" shape-rendering="geometricPrecision" text-rendering="geometricPrecision"><path d="M157.271,50.016v21.653c0,18.072-2.956,29.02-17.146,59.029-14.942,31.592-33.366,40.973-55.415,40.973-14.495,0-28.127-4.775-39.138-13.594l-.099.037-2.456-2.2-.455-.401c-3.126-2.791-5.788-5.797-8.083-8.885-.193504-.252982-.382533-.509355-.567-.769-.033-.042-.07-.087-.091-.132-.141-.186-.273-.376-.409-.562-1.314137-1.852928-2.524657-3.777208-3.626-5.764-.126904-.209715-.246967-.423494-.36-.641-3.626-6.533-6.02-13.032-8.029-18.473-.575-1.555-1.116-3.023-1.649-4.387-4.16-10.688-12.215-31.572-16.114-42.098-4.052-10.928-4.672-18.684-2.079-25.94c2.778-7.765,8.993-13.979,17.469-20.912C27.516,20,34.801,14.232,44.869,6.964C51.174,2.41,57.938,0,64.429,0c2.749,0,5.346.442,7.727,1.311.426.157.897.326,1.514.558c2.187.827,4.13,1.951,5.805,3.336.174-.099.339-.199.5-.294c4.626-2.704,9.82-4.13,15.017-4.13c4.11,0,8.137.889,11.651,2.567.761.364,1.203.587,1.708.86l.885.459c2.762,1.414,5.139,3.225,7.058,5.33c3.076-1.03,6.061-1.551,8.91-1.551c4.337,0,8.393,1.187,12.056,3.519l.873.554c1.674,1.067,2.518,1.6,3.82,2.51c9.934,6.876,15.318,14.488,15.318,34.987" fill="#ffc52f"/><path d="M138.285,20.33c-1.398-.967-2.212-1.472-4.49-2.927-4.428-2.824-10.299-3.754-18.308-.174-.529.236-1.026.455-1.513.674-1.782-3.651-4.941-6.098-7.674-7.496-1.121-.575-1.431-.761-2.44-1.241-5.437-2.601-13.297-2.977-20.635,1.311-1.476.86-3.407,2.005-5.069,2.985-1.695-2.894-4.308-4.635-6.76-5.561-.587-.219-1.038-.385-1.451-.534-5.416-1.976-13.338-.926-21.301,4.817-9.48,6.851-16.439,12.305-25.535,19.751C6.471,45.551,2.936,53.374,9.68,71.562c3.704,10.001,11.568,30.414,16.075,41.999c2.584,6.64,5.284,15.253,10.159,23.567h.004c.448824.767599.913592,1.525763,1.394,2.274.128.199.264.393.393.587c2.216,3.361,4.846,6.615,8.013,9.633.252.24.508.488.765.724.132.12.248.244.38.36l.012-.013c9.927,9.038,23.075,14.533,37.836,14.533c27.077,0,49.027-21.955,49.027-49.023v-.054c0-25.845-20.95-46.795-46.795-46.795-14.041,0-28.148,8.116-36.467,20.917-5.590385-13.690222-11.19272-27.37556-16.807-41.056-3.068-7.467-2.365-11.25,2.323-15.595c2.394-2.22,5.305-4.441,8.538-6.632c3.303-2.237,7.029-.918,7.029,3.448v46.244c7.541-7.612,16.79-12.569,28.636-14.756L80.013,23.75c.844-.521,1.633-1.005,2.225-1.348c3.022-1.753,5.185.19,5.185,3.006v35.541c.186,0,.376-.008.562-.008c9.630084-.006448,19.087441,2.557077,27.396,7.426v-39.842c.756-.306,1.468-.591,2.018-.81c3.027-1.203,5.073.674,5.073,3.411s-.211,42.238-.211,42.238c11.122,9.174,18.341,22.678,19.478,37.902c5.305-11.292,9.084-21.81,9.084-39.597v-21.653c-.002-18.03-4.091-23.839-12.538-29.686M86.517,88.563c15.608,0,28.259,12.656,28.259,28.26s-12.652,28.26-28.259,28.26c-15.604,0-28.256-12.656-28.256-28.26s12.651-28.26,28.256-28.26" fill="#12284b"/><path d="M65.087,116.824c0-5.127,1.807-9.836,4.817-13.532c5.991,7.988,5.991,19.073,0,27.061-3.119554-3.818235-4.821542-8.598431-4.817-13.529m8.563,17.138c7.885-10.022,7.885-24.257.004-34.279c3.703672-2.798583,8.219884-4.311243,12.862-4.308c4.643589-.00287,9.161272,1.509695,12.867,4.308-7.885,10.022-7.885,24.257,0,34.279-3.705521,2.798698-8.22334,4.311309-12.867,4.308-4.64333.003164-9.160787-1.509443-12.866-4.308m29.48-3.61c-5.991-7.988-5.991-19.073,0-27.061c3.01,3.696,4.821,8.405,4.821,13.532s-1.811,9.833-4.821,13.529" fill="#fff"/></svg>